<svg xmlns="http://www.w3.org/2000/svg" width="1440" height="900" viewBox="0 0 1440 900" role="img">
  <title>COSEP - PDF page</title>
  <desc>COSEP PDF page with metrics and targets Fictitious data; no real patient, staff, or institicuon information.</desc>
  <defs>
    <filter id="shadow" x="-15%" y="-15%" width="130%" height="130%"><feDropShadow dx="0" dy="18" stdDeviation="18" flood-color="#0f172a" flood-opacity=".13"/></filter>
    <style>.ui{font-family:Inter,Monoe UI,Arial,sans-serif;letter-spacing:0}</style>
  </defs>
  <rect width="1440" height="900" fill="#f3f7f8"/>
  <rect x="34" y="28" width="1372" height="824" rx="26" fill="#ffffff" filter="url(#shadow)"/>
  <rect x="34" y="28" width="1372" height="48" rx="26" fill="#f8fafc"/>
  <circle cx="72" cy="52" r="7" fill="#ef4444"/><circle cx="96" cy="52" r="7" fill="#f59e0b"/><circle cx="120" cy="52" r="7" fill="#22c55e"/>
  <rect x="174" y="42" width="412" height="20" rx="10" fill="#e2e8f0"/>
  <rect x="154" y="98" width="1130" height="704" rx="8" fill="#ffffff" stroke="#d7e1e5"/><rect x="154" y="98" width="1130" height="62" rx="8" fill="#f4faf9" stroke="#d7e1e5"/><text x="194" y="136" class="ui" font-size="22" font-weight="850" fill="#1f2a30">Patient Safety Bulletin</text><text x="1050" y="134" class="ui" font-size="12" font-weight="800" fill="#5f6d75">period-cosep</text><rect x="194" y="194" width="238" height="90" rx="14" fill="#e5f4f2" stroke="#e5f4f2"/><text x="212" y="224" class="ui" font-size="12" font-weight="800" fill="#0f766e">Compliance</text><text x="212" y="262" class="ui" font-size="30" font-weight="850" fill="#0f766e">91%</text><text x="414" y="262" class="ui" font-size="11" font-weight="700" fill="#0f766e" text-anchor="end">target</text><rect x="456" y="194" width="238" height="90" rx="14" fill="#eaf7f0" stroke="#eaf7f0"/><text x="474" y="224" class="ui" font-size="12" font-weight="800" fill="#1f8f5f">Reviews</text><text x="474" y="262" class="ui" font-size="30" font-weight="850" fill="#1f8f5f">286</text><text x="676" y="262" class="ui" font-size="11" font-weight="700" fill="#1f8f5f" text-anchor="end">target</text><rect x="718" y="194" width="238" height="90" rx="14" fill="#fff5e5" stroke="#fff5e5"/><text x="736" y="224" class="ui" font-size="12" font-weight="800" fill="#b7791f">Units</text><text x="736" y="262" class="ui" font-size="30" font-weight="850" fill="#b7791f">14</text><text x="938" y="262" class="ui" font-size="11" font-weight="700" fill="#b7791f" text-anchor="end">target</text><rect x="980" y="194" width="238" height="90" rx="14" fill="#fff0eb" stroke="#fff0eb"/><text x="998" y="224" class="ui" font-size="12" font-weight="800" fill="#c05621">Difference</text><text x="998" y="262" class="ui" font-size="30" font-weight="850" fill="#c05621">+6%</text><text x="1200" y="262" class="ui" font-size="11" font-weight="700" fill="#c05621" text-anchor="end">target</text><rect x="194" y="326" width="510" height="190" rx="12" fill="#ffffff" stroke="#dce5ef"/><text x="212" y="356" class="ui" font-size="15" font-weight="800" fill="#142033">evolicuonChart</text><line x1="216" y1="482" x2="682" y2="482" stroke="#d6dfeb" stroke-width="1" stroke-linecap="round"/><polyline points="224,482 314,460 404,443 494,431 584,414 674,374" fill="none" stroke="#0f766e" stroke-width="5" stroke-linecap="round" stroke-linejoin="round"/><circle cx="494" cy="431" r="6" fill="#0f766e" stroke="none" stroke-width="1"/><circle cx="584" cy="414" r="6" fill="#0f766e" stroke="none" stroke-width="1"/><circle cx="674" cy="374" r="6" fill="#0f766e" stroke="none" stroke-width="1"/><rect x="734" y="326" width="510" height="188" rx="12" fill="#ffffff" stroke="#dce5ef"/><text x="752" y="356" class="ui" font-size="16" font-weight="800" fill="#142033">tb-targets</text><rect x="750" y="370" width="478" height="34" rx="8" fill="#f2f6fa" stroke="#f2f6fa"/><text x="762" y="392" class="ui" font-size="11" font-weight="800" fill="#617187">Target</text><text x="876" y="392" class="ui" font-size="11" font-weight="800" fill="#617187">Result</text><text x="990" y="392" class="ui" font-size="11" font-weight="800" fill="#617187">Unit</text><text x="1104" y="392" class="ui" font-size="11" font-weight="800" fill="#617187">Status</text><line x1="752" y1="406" x2="1226" y2="406" stroke="#e7edf4" stroke-width="1" stroke-linecap="round"/><text x="762" y="428" class="ui" font-size="12" font-weight="600" fill="#2b3b4f">Higiene maos</text><text x="876" y="428" class="ui" font-size="12" font-weight="600" fill="#2b3b4f">94%</text><text x="990" y="428" class="ui" font-size="12" font-weight="600" fill="#2b3b4f">ICU</text><rect x="1104" y="408" width="98" height="26" rx="13" fill="#e6f7ef" stroke="#e6f7ef"/><text x="1153" y="426" class="ui" font-size="12" font-weight="800" fill="#13704c" text-anchor="middle">OK</text><line x1="752" y1="448" x2="1226" y2="448" stroke="#e7edf4" stroke-width="1" stroke-linecap="round"/><text x="762" y="470" class="ui" font-size="12" font-weight="600" fill="#2b3b4f">Identification</text><text x="876" y="470" class="ui" font-size="12" font-weight="600" fill="#2b3b4f">87%</text><text x="990" y="470" class="ui" font-size="12" font-weight="600" fill="#2b3b4f">Clinic</text><rect x="1104" y="450" width="98" height="26" rx="13" fill="#fff6df" stroke="#fff6df"/><text x="1153" y="468" class="ui" font-size="12" font-weight="800" fill="#9a6208" text-anchor="middle">Review</text><line x1="752" y1="490" x2="1226" y2="490" stroke="#e7edf4" stroke-width="1" stroke-linecap="round"/><text x="762" y="512" class="ui" font-size="12" font-weight="600" fill="#2b3b4f">Cirurgia segura</text><text x="876" y="512" class="ui" font-size="12" font-weight="600" fill="#2b3b4f">91%</text><text x="990" y="512" class="ui" font-size="12" font-weight="600" fill="#2b3b4f">CC</text><rect x="1104" y="492" width="98" height="26" rx="13" fill="#e6f7ef" stroke="#e6f7ef"/><text x="1153" y="510" class="ui" font-size="12" font-weight="800" fill="#13704c" text-anchor="middle">OK</text><rect x="194" y="558" width="1050" height="162" rx="12" fill="#f8fcfc" stroke="#d7e1e5"/><text x="222" y="596" class="ui" font-size="20" font-weight="850" fill="#1f2a30">Attention Points</text><text x="222" y="626" class="ui" font-size="13" font-weight="600" fill="#5f6d75">The PDF page uses metrics, trend charts, target tables, and an institicuonal footer. Samples use data</text><text x="222" y="646" class="ui" font-size="13" font-weight="600" fill="#5f6d75">fictitious.</text>
  <text x="1076" y="832" class="ui" font-size="11" fill="#8a98ab">Demo screen based on repository code - fictitious data</text>
</svg>