<svg xmlns="http://www.w3.org/2000/svg" width="1440" height="900" viewBox="0 0 1440 900" role="img">
  <title>Notifications - PDF page</title>
  <desc>Notifications PDF page with chart and rankings Fictitious data; no real patient, staff, or institicuon information.</desc>
  <defs>
    <filter id="shadow" x="-15%" y="-15%" width="130%" height="130%"><feDropShadow dx="0" dy="18" stdDeviation="18" flood-color="#0f172a" flood-opacity=".13"/></filter>
    <style>.ui{font-family:Inter,Monoe UI,Arial,sans-serif;letter-spacing:0}</style>
  </defs>
  <rect width="1440" height="900" fill="#f3f7f8"/>
  <rect x="34" y="28" width="1372" height="824" rx="26" fill="#ffffff" filter="url(#shadow)"/>
  <rect x="34" y="28" width="1372" height="48" rx="26" fill="#f8fafc"/>
  <circle cx="72" cy="52" r="7" fill="#ef4444"/><circle cx="96" cy="52" r="7" fill="#f59e0b"/><circle cx="120" cy="52" r="7" fill="#22c55e"/>
  <rect x="174" y="42" width="412" height="20" rx="10" fill="#e2e8f0"/>
  <rect x="154" y="98" width="1130" height="704" rx="8" fill="#ffffff" stroke="#d7e1e5"/><rect x="154" y="98" width="1130" height="62" rx="8" fill="#fff8ef" stroke="#ead7bd"/><text x="194" y="136" class="ui" font-size="22" font-weight="850" fill="#1f2a30">Notifications</text><text x="1048" y="134" class="ui" font-size="12" font-weight="800" fill="#5f6d75">notification-period</text><rect x="194" y="194" width="238" height="90" rx="14" fill="#fff5e5" stroke="#fff5e5"/><text x="212" y="224" class="ui" font-size="12" font-weight="800" fill="#b7791f">Total</text><text x="212" y="262" class="ui" font-size="30" font-weight="850" fill="#b7791f">128</text><text x="414" y="262" class="ui" font-size="11" font-weight="700" fill="#b7791f" text-anchor="end">notification</text><rect x="456" y="194" width="238" height="90" rx="14" fill="#fff0eb" stroke="#fff0eb"/><text x="474" y="224" class="ui" font-size="12" font-weight="800" fill="#c05621">Affected patient</text><text x="474" y="262" class="ui" font-size="30" font-weight="850" fill="#c05621">36%</text><text x="676" y="262" class="ui" font-size="11" font-weight="700" fill="#c05621" text-anchor="end">profile</text><rect x="718" y="194" width="238" height="90" rx="14" fill="#eaf7f0" stroke="#eaf7f0"/><text x="736" y="224" class="ui" font-size="12" font-weight="800" fill="#1f8f5f">Completed</text><text x="736" y="262" class="ui" font-size="30" font-weight="850" fill="#1f8f5f">82%</text><text x="938" y="262" class="ui" font-size="11" font-weight="700" fill="#1f8f5f" text-anchor="end">closed</text><rect x="980" y="194" width="238" height="90" rx="14" fill="#eef4f6" stroke="#eef4f6"/><text x="998" y="224" class="ui" font-size="12" font-weight="800" fill="#36515b">Sectors</text><text x="998" y="262" class="ui" font-size="30" font-weight="850" fill="#36515b">18</text><text x="1200" y="262" class="ui" font-size="11" font-weight="700" fill="#36515b" text-anchor="end">active</text><rect x="194" y="326" width="336" height="228" rx="12" fill="#ffffff" stroke="#d7e1e5"/><text x="220" y="362" class="ui" font-size="16" font-weight="850" fill="#1f2a30">affectedChart</text><circle cx="330" cy="458" r="62" fill="none" stroke="#c05621" stroke-width="18" stroke-dasharray="140.2 249.3" stroke-dashoffset="-0.0" transform="rotate(-90 330 458)" stroke-linecap="round"/><circle cx="330" cy="458" r="62" fill="none" stroke="#e5f4f2" stroke-width="18" stroke-dasharray="249.3 140.2" stroke-dashoffset="-140.2" transform="rotate(-90 330 458)" stroke-linecap="round"/><circle cx="330" cy="458" r="45" fill="#ffffff" stroke="none" stroke-width="1"/><text x="330" y="456" class="ui" font-size="26" font-weight="850" fill="#142033" text-anchor="middle">36%</text><text x="330" y="478" class="ui" font-size="11" font-weight="800" fill="#66758a" text-anchor="middle">affected</text><rect x="560" y="326" width="314" height="188" rx="12" fill="#ffffff" stroke="#dce5ef"/><text x="578" y="356" class="ui" font-size="16" font-weight="800" fill="#142033">tb-tipo</text><rect x="576" y="370" width="282" height="34" rx="8" fill="#f2f6fa" stroke="#f2f6fa"/><text x="588" y="392" class="ui" font-size="11" font-weight="800" fill="#617187">Type</text><text x="675" y="392" class="ui" font-size="11" font-weight="800" fill="#617187">Qty</text><text x="762" y="392" class="ui" font-size="11" font-weight="800" fill="#617187">Status</text><line x1="578" y1="406" x2="856" y2="406" stroke="#e7edf4" stroke-width="1" stroke-linecap="round"/><text x="588" y="428" class="ui" font-size="12" font-weight="600" fill="#2b3b4f">Fall</text><text x="675" y="428" class="ui" font-size="12" font-weight="600" fill="#2b3b4f">28</text><rect x="762" y="408" width="71" height="26" rx="13" fill="#fff6df" stroke="#fff6df"/><text x="797" y="426" class="ui" font-size="12" font-weight="800" fill="#9a6208" text-anchor="middle">Alert</text><line x1="578" y1="448" x2="856" y2="448" stroke="#e7edf4" stroke-width="1" stroke-linecap="round"/><text x="588" y="470" class="ui" font-size="12" font-weight="600" fill="#2b3b4f">Medication</text><text x="675" y="470" class="ui" font-size="12" font-weight="600" fill="#2b3b4f">19</text><rect x="762" y="450" width="71" height="26" rx="13" fill="#e6f7ef" stroke="#e6f7ef"/><text x="797" y="468" class="ui" font-size="12" font-weight="800" fill="#13704c" text-anchor="middle">OK</text><line x1="578" y1="490" x2="856" y2="490" stroke="#e7edf4" stroke-width="1" stroke-linecap="round"/><text x="588" y="512" class="ui" font-size="12" font-weight="600" fill="#2b3b4f">Identification</text><text x="675" y="512" class="ui" font-size="12" font-weight="600" fill="#2b3b4f">12</text><rect x="762" y="492" width="71" height="26" rx="13" fill="#fff6df" stroke="#fff6df"/><text x="797" y="510" class="ui" font-size="12" font-weight="800" fill="#9a6208" text-anchor="middle">Review</text><rect x="904" y="326" width="314" height="188" rx="12" fill="#ffffff" stroke="#dce5ef"/><text x="922" y="356" class="ui" font-size="16" font-weight="800" fill="#142033">tb-sector</text><rect x="920" y="370" width="282" height="34" rx="8" fill="#f2f6fa" stroke="#f2f6fa"/><text x="932" y="392" class="ui" font-size="11" font-weight="800" fill="#617187">Sector</text><text x="1019" y="392" class="ui" font-size="11" font-weight="800" fill="#617187">Qty</text><text x="1106" y="392" class="ui" font-size="11" font-weight="800" fill="#617187">Status</text><line x1="922" y1="406" x2="1200" y2="406" stroke="#e7edf4" stroke-width="1" stroke-linecap="round"/><text x="932" y="428" class="ui" font-size="12" font-weight="600" fill="#2b3b4f">ICU</text><text x="1019" y="428" class="ui" font-size="12" font-weight="600" fill="#2b3b4f">31</text><rect x="1106" y="408" width="71" height="26" rx="13" fill="#fff6df" stroke="#fff6df"/><text x="1141" y="426" class="ui" font-size="12" font-weight="800" fill="#9a6208" text-anchor="middle">Alert</text><line x1="922" y1="448" x2="1200" y2="448" stroke="#e7edf4" stroke-width="1" stroke-linecap="round"/><text x="932" y="470" class="ui" font-size="12" font-weight="600" fill="#2b3b4f">Clinic</text><text x="1019" y="470" class="ui" font-size="12" font-weight="600" fill="#2b3b4f">25</text><rect x="1106" y="450" width="71" height="26" rx="13" fill="#e6f7ef" stroke="#e6f7ef"/><text x="1141" y="468" class="ui" font-size="12" font-weight="800" fill="#13704c" text-anchor="middle">OK</text><line x1="922" y1="490" x2="1200" y2="490" stroke="#e7edf4" stroke-width="1" stroke-linecap="round"/><text x="932" y="512" class="ui" font-size="12" font-weight="600" fill="#2b3b4f">PA</text><text x="1019" y="512" class="ui" font-size="12" font-weight="600" fill="#2b3b4f">22</text><rect x="1106" y="492" width="71" height="26" rx="13" fill="#fff6df" stroke="#fff6df"/><text x="1141" y="510" class="ui" font-size="12" font-weight="800" fill="#9a6208" text-anchor="middle">Review</text><rect x="194" y="592" width="1024" height="90" rx="12" fill="#f7fafb" stroke="#d7e1e5"/><text x="222" y="628" class="ui" font-size="16" font-weight="850" fill="#1f2a30">section-grid-2 / section-grid-3</text><text x="222" y="656" class="ui" font-size="13" font-weight="600" fill="#5f6d75">The structure mirrors the blocks and tables named in the bulletin HTML.</text>
  <text x="1076" y="832" class="ui" font-size="11" fill="#8a98ab">Demo screen based on repository code - fictitious data</text>
</svg>