<svg xmlns="http://www.w3.org/2000/svg" width="1440" height="900" viewBox="0 0 1440 900" role="img">
  <title>COSEP - filters</title>
  <desc>Filters panel and bulletin queue Fictitious data; no real patient, staff, or institicuon information.</desc>
  <defs>
    <filter id="shadow" x="-15%" y="-15%" width="130%" height="130%"><feDropShadow dx="0" dy="18" stdDeviation="18" flood-color="#0f172a" flood-opacity=".13"/></filter>
    <style>.ui{font-family:Inter,Monoe UI,Arial,sans-serif;letter-spacing:0}</style>
  </defs>
  <rect width="1440" height="900" fill="#f3f7f8"/>
  <rect x="34" y="28" width="1372" height="824" rx="26" fill="#ffffff" filter="url(#shadow)"/>
  <rect x="34" y="28" width="1372" height="48" rx="26" fill="#f8fafc"/>
  <circle cx="72" cy="52" r="7" fill="#ef4444"/><circle cx="96" cy="52" r="7" fill="#f59e0b"/><circle cx="120" cy="52" r="7" fill="#22c55e"/>
  <rect x="174" y="42" width="412" height="20" rx="10" fill="#e2e8f0"/>
  <rect x="82" y="104" width="1276" height="152" rx="18" fill="#ffffff" stroke="#d7e1e5"/><text x="112" y="152" class="ui" font-size="30" font-weight="850" fill="#1f2a30">Patient Safety Bulletin</text><text x="112" y="182" class="ui" font-size="14" font-weight="600" fill="#5f6d75">Separate filters for COSEP safety walks and notifications</text><rect x="112" y="204" width="290" height="30" rx="15" fill="#e5f4f2" stroke="#e5f4f2"/><text x="257" y="224" class="ui" font-size="12" font-weight="800" fill="#0f766e" text-anchor="middle">Switch to dark theme (night shift)</text><rect x="430" y="204" width="190" height="30" rx="15" fill="#fff5e5" stroke="#fff5e5"/><text x="452" y="225" class="ui" font-size="12" font-weight="800" fill="#b7791f">generated-status</text><rect x="82" y="286" width="600" height="250" rx="16" fill="#ffffff" stroke="#d7e1e5"/><text x="112" y="324" class="ui" font-size="20" font-weight="850" fill="#1f2a30">COSEP Safety Walks</text><text x="112" y="362" class="ui" font-size="11" font-weight="800" fill="#66758a">year-cosep</text><rect x="112" y="370" width="178" height="44" rx="9" fill="#f7fafc" stroke="#d8e1ed"/><text x="126" y="400" class="ui" font-size="13" font-weight="600" fill="#26364a">2026</text><text x="318" y="362" class="ui" font-size="11" font-weight="800" fill="#66758a">search-year-cosep</text><rect x="318" y="370" width="196" height="44" rx="9" fill="#f7fafc" stroke="#d8e1ed"/><text x="332" y="400" class="ui" font-size="13" font-weight="600" fill="#26364a">Search year</text><rect x="112" y="444" width="88" height="28" rx="14" fill="#0f766e" stroke="#0f766e"/><text x="156" y="463" class="ui" font-size="12" font-weight="800" fill="#ffffff" text-anchor="middle">All</text><rect x="214" y="444" width="88" height="28" rx="14" fill="#e5f4f2" stroke="#e5f4f2"/><text x="258" y="463" class="ui" font-size="12" font-weight="800" fill="#0f766e" text-anchor="middle">ICU</text><rect x="316" y="444" width="88" height="28" rx="14" fill="#e5f4f2" stroke="#e5f4f2"/><text x="360" y="463" class="ui" font-size="12" font-weight="800" fill="#0f766e" text-anchor="middle">Clinic</text><rect x="418" y="444" width="88" height="28" rx="14" fill="#e5f4f2" stroke="#e5f4f2"/><text x="462" y="463" class="ui" font-size="12" font-weight="800" fill="#0f766e" text-anchor="middle">Pediatrics</text><rect x="520" y="444" width="88" height="28" rx="14" fill="#e5f4f2" stroke="#e5f4f2"/><text x="564" y="463" class="ui" font-size="12" font-weight="800" fill="#0f766e" text-anchor="middle">Surgical Center</text><rect x="724" y="286" width="634" height="250" rx="16" fill="#ffffff" stroke="#d7e1e5"/><text x="754" y="324" class="ui" font-size="20" font-weight="850" fill="#1f2a30">Notifications</text><text x="754" y="362" class="ui" font-size="11" font-weight="800" fill="#66758a">year-notification</text><rect x="754" y="370" width="178" height="44" rx="9" fill="#f7fafc" stroke="#d8e1ed"/><text x="768" y="400" class="ui" font-size="13" font-weight="600" fill="#26364a">2026</text><text x="960" y="362" class="ui" font-size="11" font-weight="800" fill="#66758a">search-year-notification</text><rect x="960" y="370" width="196" height="44" rx="9" fill="#f7fafc" stroke="#d8e1ed"/><text x="974" y="400" class="ui" font-size="13" font-weight="600" fill="#26364a">Search year</text><rect x="754" y="444" width="116" height="28" rx="14" fill="#c05621" stroke="#c05621"/><text x="812" y="463" class="ui" font-size="12" font-weight="800" fill="#ffffff" text-anchor="middle">Affected patient</text><rect x="886" y="444" width="116" height="28" rx="14" fill="#fff5e5" stroke="#fff5e5"/><text x="944" y="463" class="ui" font-size="12" font-weight="800" fill="#c05621" text-anchor="middle">Completed</text><rect x="1018" y="444" width="116" height="28" rx="14" fill="#fff5e5" stroke="#fff5e5"/><text x="1076" y="463" class="ui" font-size="12" font-weight="800" fill="#c05621" text-anchor="middle">Type</text><rect x="1150" y="444" width="116" height="28" rx="14" fill="#fff5e5" stroke="#fff5e5"/><text x="1208" y="463" class="ui" font-size="12" font-weight="800" fill="#c05621" text-anchor="middle">Sector</text><rect x="82" y="568" width="1276" height="236" rx="16" fill="#ffffff" stroke="#d7e1e5"/><text x="112" y="608" class="ui" font-size="19" font-weight="850" fill="#1f2a30">Selection Summary</text><rect x="112" y="634" width="260" height="96" rx="14" fill="#e5f4f2" stroke="#e5f4f2"/><text x="130" y="664" class="ui" font-size="12" font-weight="800" fill="#0f766e">COSEP</text><text x="130" y="702" class="ui" font-size="30" font-weight="850" fill="#0f766e">14 filters</text><text x="354" y="702" class="ui" font-size="11" font-weight="700" fill="#0f766e" text-anchor="end">ready</text><rect x="398" y="634" width="260" height="96" rx="14" fill="#fff5e5" stroke="#fff5e5"/><text x="416" y="664" class="ui" font-size="12" font-weight="800" fill="#c05621">Notifications</text><text x="416" y="702" class="ui" font-size="30" font-weight="850" fill="#c05621">8 filters</text><text x="640" y="702" class="ui" font-size="11" font-weight="700" fill="#c05621" text-anchor="end">ready</text><rect x="684" y="634" width="260" height="96" rx="14" fill="#eef4f6" stroke="#eef4f6"/><text x="702" y="664" class="ui" font-size="12" font-weight="800" fill="#36515b">Queue</text><text x="702" y="702" class="ui" font-size="30" font-weight="850" fill="#36515b">3 reports</text><text x="926" y="702" class="ui" font-size="11" font-weight="700" fill="#36515b" text-anchor="end">ready</text><rect x="992" y="634" width="316" height="96" rx="14" fill="#f8fcfc" stroke="#dce5ef"/><rect x="992" y="634" width="5" height="96" rx="5" fill="#0f766e" stroke="#0f766e"/><text x="1014" y="666" class="ui" font-size="17" font-weight="850" fill="#142033">Attention Points</text><text x="1014" y="690" class="ui" font-size="12" font-weight="600" fill="#66758a">Real card used before PDF pages.</text>
  <text x="1076" y="832" class="ui" font-size="11" fill="#8a98ab">Demo screen based on repository code - fictitious data</text>
</svg>